<?xml version="1.0" encoding="utf-8"?>
<!-- Generator: Adobe Illustrator 24.0.1, SVG Export Plug-In . SVG Version: 6.00 Build 0)  -->
<svg version="1.1" id="Capa_1" xmlns="http://www.w3.org/2000/svg" xmlns:xlink="http://www.w3.org/1999/xlink" x="0px" y="0px"
	 viewBox="0 0 512 512" style="enable-background:new 0 0 512 512;" xml:space="preserve">
<style type="text/css">
	.st0{fill:#FFFFFF;}
</style>
<g>
	<g>
		<path class="st0" d="M425.95,89.02C386.86,32.45,324.92,0,256.01,0S125.15,32.45,86.06,89.02
			c-38.9,56.28-47.88,127.54-24.07,190.5c6.37,17.19,16.49,33.89,30.01,49.55L242.38,505.7c3.4,4,8.38,6.3,13.63,6.3
			s10.23-2.3,13.63-6.3l150.34-176.59c13.58-15.74,23.69-32.43,30-49.48C473.83,216.56,464.85,145.3,425.95,89.02z M416.45,267.09
			c-4.87,13.16-12.82,26.17-23.61,38.68c-0.03,0.03-0.06,0.06-0.08,0.1L256.01,466.49L119.17,305.77
			c-10.79-12.5-18.74-25.51-23.65-38.79c-19.69-52.07-12.22-110.98,19.99-157.59c32.31-46.76,83.52-73.58,140.5-73.58
			c56.98,0,108.18,26.82,140.49,73.58C428.71,155.99,436.18,214.91,416.45,267.09z"/>
	</g>
</g>
<g>
	<g>
		<path class="st0" d="M256.01,106.22c-55.28,0-100.25,44.97-100.25,100.25s44.97,100.25,100.25,100.25s100.25-44.97,100.25-100.25
			C356.26,151.2,311.28,106.22,256.01,106.22z M256.01,270.92c-35.54,0-64.45-28.91-64.45-64.45s28.91-64.45,64.45-64.45
			s64.45,28.91,64.45,64.45S291.54,270.92,256.01,270.92z"/>
	</g>
</g>
</svg>
