<?xml version="1.0" encoding="utf-8"?>
<!-- Generator: Adobe Illustrator 24.0.1, SVG Export Plug-In . SVG Version: 6.00 Build 0)  -->
<svg version="1.1" id="Capa_1" xmlns="http://www.w3.org/2000/svg" xmlns:xlink="http://www.w3.org/1999/xlink" x="0px" y="0px"
	 viewBox="0 0 512 512" style="enable-background:new 0 0 512 512;" xml:space="preserve">
<style type="text/css">
	.st0{fill:#FFFFFF;}
</style>
<g>
	<g>
		<path class="st0" d="M467,61H45C20.22,61,0,81.2,0,106v300c0,24.72,20.13,45,45,45h422c24.72,0,45-20.13,45-45V106
			C512,81.28,491.87,61,467,61z M460.79,91L256.95,294.83L51.36,91H460.79z M30,399.79V112.07l144.48,143.24L30,399.79z M51.21,421
			l144.57-144.57l50.66,50.22c5.86,5.81,15.33,5.8,21.17-0.05L317,277.21L460.79,421H51.21z M482,399.79L338.21,256L482,112.21
			V399.79z"/>
	</g>
</g>
</svg>
