<?xml version="1.0" encoding="utf-8"?>
<!-- Generator: Adobe Illustrator 24.0.1, SVG Export Plug-In . SVG Version: 6.00 Build 0)  -->
<svg version="1.1" id="Capa_1" xmlns="http://www.w3.org/2000/svg" xmlns:xlink="http://www.w3.org/1999/xlink" x="0px" y="0px"
	 viewBox="0 0 512 512" style="enable-background:new 0 0 512 512;" xml:space="preserve">
<style type="text/css">
	.st0{fill:#FFFFFF;}
</style>
<g>
	<g>
		<path class="st0" d="M492.38,104.55c-19.65-27.03-54.05-51.43-96.88-68.7C352.91,18.67,303.45,9.17,256.24,9.1
			c-47.21-0.12-96.73,9.28-139.39,26.33c-42.9,17.14-77.39,41.44-97.1,68.4c-18.94,25.9-24.4,53.82-15.78,80.74
			c5.59,17.46,21.88,29.21,40.56,29.24l63.95,0.06c0.02,0,0.04,0,0.06,0c12.75,0,24.73-5.58,32.87-15.32
			c8.06-9.63,11.39-22.23,9.16-34.55c-0.07-0.36-0.15-0.72-0.24-1.08l-3.37-13.08c18.63-8.89,60.85-26.07,109.07-25.8
			c48.19,0.25,90.38,17.42,109.03,26.31l-3.42,13.01c-0.1,0.37-0.18,0.74-0.25,1.11c-2.27,12.32,1.03,24.92,9.06,34.57
			c8.13,9.78,20.12,15.4,32.9,15.42l63.95,0.06c0.02,0,0.04,0,0.06,0c18.64,0,34.94-11.7,40.57-29.12
			C516.65,158.49,511.26,130.53,492.38,104.55z M478.88,176.01c-1.52,4.69-6.24,7.96-11.5,7.96c-0.01,0-0.01,0-0.02,0l-63.95-0.06
			c-3.68-0.01-7.13-1.61-9.44-4.39c-1.26-1.51-3.22-4.67-2.58-9.05l6.36-24.2c1.74-6.63-1.15-13.61-7.07-17.07
			c-2.47-1.44-61.27-35.33-134.48-35.71c-0.41,0-0.8,0-1.21,0c-72.74,0-131.12,33.74-133.58,35.18c-5.88,3.45-8.77,10.38-7.07,16.99
			l6.24,24.24c0.64,4.39-1.34,7.54-2.61,9.06c-2.32,2.77-5.76,4.36-9.44,4.36c-0.01,0-0.01,0-0.02,0l-63.95-0.06
			c-5.26-0.01-9.99-3.29-11.49-7.99c-5.59-17.48-1.77-35.45,11.35-53.39c34.86-47.68,123.66-82.21,211.3-82.21c0.16,0,0.32,0,0.48,0
			c87.73,0.13,176.66,34.97,211.46,82.85C480.75,140.52,484.53,158.52,478.88,176.01z"/>
	</g>
</g>
<g>
	<g>
		<path class="st0" d="M400.6,279.81l-47.69-50.07c-2.89-3.03-6.88-4.74-11.06-4.74h-30.82v-20.82c0-8.44-6.84-15.28-15.28-15.28
			c-8.44,0-15.28,6.84-15.28,15.28v20.82h-48.92v-20.82c0-8.44-6.84-15.28-15.28-15.28s-15.28,6.84-15.28,15.28v20.82h-30.82
			c-4.18,0-8.18,1.71-11.06,4.74l-47.69,50.07c-37.39,39.26-57.99,90.74-57.99,144.96v62.85c0,8.44,6.84,15.28,15.28,15.28H443.3
			c8.44,0,15.28-6.84,15.28-15.28v-62.85C458.58,370.55,437.99,319.07,400.6,279.81z M83.99,472.34v-47.58
			c0-46.34,17.6-90.33,49.56-123.89l43.17-45.33h158.58l43.17,45.33c31.96,33.55,49.55,77.55,49.55,123.89v47.58H83.99z"/>
	</g>
</g>
<g>
	<g>
		<path class="st0" d="M256.01,287.14c-44.09,0-79.96,35.87-79.96,79.96c0,44.09,35.87,79.96,79.96,79.96s79.96-35.87,79.96-79.96
			S300.1,287.14,256.01,287.14z M256.01,416.5c-27.24,0-49.4-22.16-49.4-49.4c0-27.24,22.16-49.4,49.4-49.4s49.4,22.16,49.4,49.4
			C305.41,394.33,283.25,416.5,256.01,416.5z"/>
	</g>
</g>
</svg>
