<svg xmlns="http://www.w3.org/2000/svg" width="24.895" height="24.9" viewBox="0 0 24.895 24.9">
  <g id="instagram" transform="translate(0.5 0.5)">
    <path id="Path_5" data-name="Path 5" d="M24.283,7.027a8.733,8.733,0,0,0-.556-2.9,6.122,6.122,0,0,0-3.5-3.5,8.755,8.755,0,0,0-2.9-.556C16.052.014,15.646,0,12.4,0S8.75.014,7.475.07a8.736,8.736,0,0,0-2.9.556,5.831,5.831,0,0,0-2.12,1.382A5.884,5.884,0,0,0,1.079,4.123a8.756,8.756,0,0,0-.556,2.9C.463,8.3.449,8.707.449,11.952s.014,3.651.07,4.926a8.733,8.733,0,0,0,.556,2.9,6.121,6.121,0,0,0,3.5,3.5,8.757,8.757,0,0,0,2.9.556c1.274.056,1.681.07,4.926.07s3.651-.014,4.926-.07a8.731,8.731,0,0,0,2.9-.556,6.113,6.113,0,0,0,3.5-3.5,8.762,8.762,0,0,0,.556-2.9c.056-1.275.07-1.681.07-4.926s0-3.651-.061-4.926Zm-2.152,9.758A6.551,6.551,0,0,1,21.72,19a3.965,3.965,0,0,1-2.269,2.269,6.574,6.574,0,0,1-2.218.411c-1.261.056-1.639.07-4.827.07s-3.572-.014-4.828-.07a6.547,6.547,0,0,1-2.218-.411,3.678,3.678,0,0,1-1.373-.892A3.716,3.716,0,0,1,3.1,19.007a6.575,6.575,0,0,1-.411-2.218c-.056-1.261-.07-1.639-.07-4.828s.014-3.572.07-4.827A6.547,6.547,0,0,1,3.1,4.916a3.633,3.633,0,0,1,.9-1.373,3.71,3.71,0,0,1,1.373-.892,6.578,6.578,0,0,1,2.218-.411c1.261-.056,1.639-.07,4.827-.07s3.572.014,4.828.07a6.551,6.551,0,0,1,2.218.411,3.675,3.675,0,0,1,1.373.892,3.715,3.715,0,0,1,.892,1.373,6.577,6.577,0,0,1,.411,2.218c.056,1.261.07,1.639.07,4.827s-.014,3.562-.07,4.823Zm0,0" transform="translate(-0.449 0)" fill="#fff" stroke="#fff" stroke-width="1"/>
    <path id="Path_6" data-name="Path 6" d="M131.089,124.5a6.14,6.14,0,1,0,6.14,6.14A6.141,6.141,0,0,0,131.089,124.5Zm0,10.122a3.983,3.983,0,1,1,3.983-3.983A3.983,3.983,0,0,1,131.089,134.622Zm0,0" transform="translate(-119.136 -118.687)" fill="#fff" stroke="#fff" stroke-width="1"/>
  </g>
</svg>
