<svg xmlns="http://www.w3.org/2000/svg" width="33.708" height="26.017" viewBox="0 0 33.708 26.017">
  <g id="youtube_1_" data-name="youtube (1)" transform="translate(1 1.001)">
    <path id="Path_24" data-name="Path 24" d="M808.545,450.086l-7-3.833a1.287,1.287,0,0,0-1.9,1.129v7.6a1.284,1.284,0,0,0,1.9,1.133l7.005-3.767a1.287,1.287,0,0,0,.008-2.262Zm-7.051,3.94v-5.68l5.235,2.865Zm0,0" transform="translate(-787.811 -439.497)" fill="#fff" stroke="#fff" stroke-width="1"/>
    <path id="Path_25" data-name="Path 25" d="M31.471,5.668V5.653a7.251,7.251,0,0,0-1.4-3.68,5.159,5.159,0,0,0-3.417-1.6L26.5.352,26.441.347C22.25.042,15.919,0,15.856,0h-.011C15.781,0,9.451.042,5.221.347L5.165.352,5.017.37a5.03,5.03,0,0,0-3.4,1.652A7.6,7.6,0,0,0,.233,5.635l0,.032C.22,5.774,0,8.3,0,10.84v2.373c0,2.538.224,5.066.233,5.173l0,.016a7.18,7.18,0,0,0,1.392,3.635,5.265,5.265,0,0,0,3.532,1.58c.129.015.24.027.316.041l.073.01c2.42.23,10.009.344,10.33.348h.019c.063,0,6.394-.042,10.585-.347l.055-.006c.053-.007.112-.013.178-.02a4.913,4.913,0,0,0,3.368-1.611,7.6,7.6,0,0,0,1.386-3.613l0-.032c.009-.106.233-2.634.233-5.172V10.84c0-2.538-.224-5.066-.233-5.172Zm-1.625,7.545c0,2.349-.205,4.768-.224,4.991a5.9,5.9,0,0,1-.912,2.574,3.056,3.056,0,0,1-2.193,1.017l-.2.022c-4.054.293-10.146.338-10.426.34-.315,0-7.792-.119-10.139-.337-.12-.02-.25-.035-.387-.05a3.474,3.474,0,0,1-2.376-.993l-.017-.018a5.352,5.352,0,0,1-.894-2.548c-.015-.168-.225-2.616-.225-5V10.84c0-2.347.2-4.763.224-4.99a5.779,5.779,0,0,1,.912-2.575A3.206,3.206,0,0,1,5.23,2.216L5.381,2.2C9.495,1.9,15.63,1.859,15.85,1.858S22.2,1.9,26.28,2.2l.164.019a3.327,3.327,0,0,1,2.276,1.031l.007.008a5.438,5.438,0,0,1,.894,2.586c.014.158.225,2.612.225,5Zm0,0" transform="translate(0.004 0)" fill="#fff" stroke="#fff" stroke-width="2"/>
  </g>
</svg>
