<?xml version="1.0" encoding="utf-8"?>
<!-- Generator: Adobe Illustrator 24.0.1, SVG Export Plug-In . SVG Version: 6.00 Build 0)  -->
<svg version="1.1" id="Capa_1" xmlns="http://www.w3.org/2000/svg" xmlns:xlink="http://www.w3.org/1999/xlink" x="0px" y="0px"
	 viewBox="0 0 512 512" style="enable-background:new 0 0 512 512;" xml:space="preserve">
<style type="text/css">
	.st0{fill:#FFFFFF;}
</style>
<g>
	<g>
		<path class="st0" d="M506.13,241.84c-0.01-0.01-0.01-0.01-0.02-0.02l-104.5-104c-7.83-7.79-20.49-7.76-28.29,0.07
			c-7.79,7.83-7.76,20.49,0.07,28.28L443.56,236H20c-11.05,0-20,8.95-20,20c0,11.05,8.95,20,20,20h423.56l-70.16,69.82
			c-7.83,7.79-7.86,20.45-0.07,28.28c7.79,7.83,20.46,7.86,28.29,0.07l104.5-104c0.01-0.01,0.01-0.01,0.02-0.02
			C513.97,262.34,513.94,249.63,506.13,241.84z"/>
	</g>
</g>
</svg>
